<?xml version="1.0" ?><svg data-name="Layer 1" id="Layer_1" viewBox="0 0 64 64" xmlns="http://www.w3.org/2000/svg"><defs><style>.cls-1{fill:#677a91;}.cls-2{fill:#6e9eff;}.cls-3{fill:#fedb41;}.cls-4{fill:#002849;}</style></defs><title/><path class="cls-1" d="M53.4,39.47a2.58,2.58,0,0,0,0-.31,7.11,7.11,0,0,0-7.94-7.06h0a7,7,0,0,0-.74.13l-.11,0c-.23.06-.45.12-.66.2l-.09,0a6.87,6.87,0,0,0-.69.3h0a14.35,14.35,0,0,0-14-11.32c-.49,0-1,0-1.44.08l-.2,0c-.39,0-.78.1-1.16.18l-.38.09c-.31.07-.63.15-.93.24l-.45.15c-.28.09-.55.19-.82.3l-.47.21-.74.35-.48.26-.67.41-.47.31-.61.46-.44.35c-.19.16-.38.34-.56.51l-.41.39c-.18.19-.36.39-.53.58s-.24.26-.35.4-.39.5-.57.76l-.22.3q-.37.54-.68,1.12c-.07.12-.12.25-.19.37s-.28.55-.4.83-.12.3-.18.46-.21.54-.3.81-.09.32-.14.48-.16.56-.22.85-.06.32-.09.48-.08.35-.1.53h-.53a12.39,12.39,0,0,0,0,24.78H52.44a9.56,9.56,0,0,0,1-19.08Z"/><path class="cls-2" d="M43.13,32.81a6.87,6.87,0,0,1,.69-.3,7.05,7.05,0,0,0-.69.3Z"/><path class="cls-3" d="M10.24,17.18,10,15.84l-.23,1.34a6,6,0,0,1-4.94,4.94l-1.34.23,1.34.23a6,6,0,0,1,4.94,4.94L10,28.86l.23-1.34a6,6,0,0,1,4.94-4.94l1.34-.23-1.34-.23A6,6,0,0,1,10.24,17.18Z"/><path class="cls-3" d="M26.41,17.13l.23,1.34.23-1.34a6,6,0,0,1,4.94-4.94L33.15,12l-1.34-.23A6,6,0,0,1,26.86,6.8l-.23-1.34L26.41,6.8a6,6,0,0,1-4.94,4.94L20.12,12l1.34.23A6,6,0,0,1,26.41,17.13Z"/><path class="cls-3" d="M45.8,25.82,46,27.16l.23-1.34a6,6,0,0,1,4.94-4.94l1.34-.23-1.34-.23a6,6,0,0,1-4.94-4.94L46,14.14l-.23,1.34a6,6,0,0,1-4.94,4.94l-1.34.23,1.34.23A6,6,0,0,1,45.8,25.82Z"/><path class="cls-4" d="M14.39,59.55H52.44a10.52,10.52,0,0,0,7.22-2.86,1,1,0,1,0-1.37-1.46,8.53,8.53,0,0,1-5.85,2.32H14.39a11.39,11.39,0,0,1-10-16.81,1,1,0,1,0-1.76-1A13.39,13.39,0,0,0,14.39,59.55Z"/><path class="cls-4" d="M54.39,38.6a8.12,8.12,0,0,0-8.06-7.54h0a8.1,8.1,0,0,0-1.19.1l-.14,0a8.05,8.05,0,0,0-1.16.27,15.42,15.42,0,0,0-14.7-11c-.5,0-1,0-1.49.08l-.41.05c-.33,0-.66.09-1,.15l-.66.15-.66.17-.8.25-.44.16c-.31.12-.61.24-.91.38l-.22.11a15.41,15.41,0,0,0-4.91,3.69l-.12.13c-.22.25-.42.51-.62.78l-.25.34c-.17.23-.32.47-.48.71l-.31.51c-.12.21-.24.42-.36.64s-.23.46-.34.7-.17.36-.24.54-.25.64-.36,1c0,.11-.08.23-.12.34-.14.47-.27.94-.37,1.43a13.28,13.28,0,0,0-9.19,4,1,1,0,0,0,1.42,1.41,11.29,11.29,0,0,1,7.52-3.34c0,.35-.05.69-.05,1s0,.77,0,1.15a1,1,0,0,0,1,.93h.08a1,1,0,0,0,.92-1.07q0-.5,0-1A13.34,13.34,0,0,1,16,33.38c0-.12,0-.25.07-.37.06-.3.14-.59.23-.88,0-.12.07-.25.11-.37.09-.27.19-.54.3-.81s.1-.26.15-.39.22-.46.33-.69.15-.31.23-.46.16-.26.24-.39a13.49,13.49,0,0,1,2.72-3.25h0c.28-.24.57-.47.86-.68l.08-.06c.28-.2.57-.39.87-.57l.15-.09c.28-.16.56-.32.85-.46l.25-.12q.4-.19.82-.35l.38-.14.74-.24.57-.15.6-.14c.3-.06.61-.1.91-.14l.32,0c.43,0,.88-.07,1.32-.07h0A13.4,13.4,0,0,1,42,32.32a8.1,8.1,0,0,0-2.64,11,1,1,0,1,0,1.72-1,6.1,6.1,0,0,1,2.53-8.59h0a5.81,5.81,0,0,1,.6-.26l.09,0a6,6,0,0,1,.58-.17l.07,0a6.1,6.1,0,0,1,7.49,5.95,1.51,1.51,0,0,1,0,.19,1,1,0,0,0,.89,1.11,8.57,8.57,0,0,1,7.38,10.86,1,1,0,1,0,1.92.55A10.57,10.57,0,0,0,54.39,38.6Z"/><path class="cls-4" d="M16.57,43.8a1,1,0,0,0,.87-1.49q-.27-.48-.5-1a1,1,0,0,0-1.82.82q.26.58.57,1.14A1,1,0,0,0,16.57,43.8Z"/><path class="cls-4" d="M9.25,27.35,9,28.69a1,1,0,0,0,.82,1.15H10A1,1,0,0,0,11,29l.23-1.34a5,5,0,0,1,4.12-4.12l1.34-.23a1,1,0,0,0,0-2l-1.34-.23A5,5,0,0,1,11.23,17L11,15.67a1,1,0,0,0-2,0L8.8,17a5,5,0,0,1-4.12,4.12l-1.34.23a1,1,0,0,0,0,2l1.34.23a5,5,0,0,1,1.77.66,1,1,0,0,0,1-1.71l-.29-.16A7,7,0,0,0,10,19.54a7,7,0,0,0,2.81,2.81A7,7,0,0,0,9.25,27.35Z"/><path class="cls-4" d="M20,13l1.34.23a5,5,0,0,1,4.12,4.12l.23,1.34a1,1,0,0,0,2,0l.23-1.34A5,5,0,0,1,32,13.18L33.31,13a1,1,0,0,0,0-2L32,10.75a5,5,0,0,1-4.12-4.12l-.23-1.34a1,1,0,1,0-2,.33L25.88,7a7,7,0,0,0,3.57,5,7,7,0,0,0-2.81,2.81A7,7,0,0,0,23.83,12a7,7,0,0,0,1.39-1A1,1,0,0,0,23.86,9.5a5,5,0,0,1-2.56,1.25L20,11a1,1,0,0,0,0,2Z"/><path class="cls-4" d="M39.35,21.64l1.34.23A5,5,0,0,1,44.82,26L45,27.33a1,1,0,0,0,2,0L47.24,26a5,5,0,0,1,4.12-4.12l1.34-.23a1,1,0,1,0-.33-2L51,19.89a7,7,0,0,0-5,3.57,7,7,0,0,0-2.81-2.81A7,7,0,0,0,46,17.84a7,7,0,0,0,.5.79,1,1,0,0,0,1.61-1.18,5.06,5.06,0,0,1-.9-2.14L47,14a1,1,0,0,0-2,0l-.23,1.34a5,5,0,0,1-4.12,4.12l-1.34.23a1,1,0,0,0,0,2Z"/></svg>