<?xml version="1.0" ?><svg data-name="Layer 1" id="Layer_1" viewBox="0 0 64 64" xmlns="http://www.w3.org/2000/svg"><defs><style>.cls-1{fill:#83d9f2;}.cls-2{fill:#6e9eff;}.cls-3{fill:#fedb41;}.cls-4{fill:#002849;}</style></defs><title/><path class="cls-1" d="M55.57,38.44v-.22A5.25,5.25,0,0,0,50.32,33a4.88,4.88,0,0,0-.54,0,2.5,2.5,0,0,0-.38.06h-.07l-.22,0a4,4,0,0,0-.69.22l-.09,0-.08,0-.27.13h0a10.6,10.6,0,0,0-10.31-8.36h0c-.34,0-.67,0-1,0l-.33,0-.27,0-.46.07-.35.09-.4.09a11.09,11.09,0,0,0-1.3.46L33,26.2a9.74,9.74,0,0,0-.9.49L31.7,27l-.36.25-.32.26-.36.29a2.4,2.4,0,0,0-.23.22,2.62,2.62,0,0,0-.3.28,4.11,4.11,0,0,0-.35.37c-.11.12-.23.25-.33.38s-.21.26-.32.4-.19.26-.27.39a9.09,9.09,0,0,0-.78,1.35c-.08.16-.15.31-.22.47s-.16.39-.23.59l-.12.38c0,.16-.1.33-.14.49s-.09.35-.13.53-.08.41-.11.62h-.38a9.15,9.15,0,1,0,0,18.3H54.86a7.06,7.06,0,0,0,.71-14.09Z"/><path class="cls-2" d="M27,25.52l-.23.06-.06,0-.1,0a2.65,2.65,0,0,0-.49.2,8.38,8.38,0,0,0-8.18-6.59,8,8,0,0,0-2.09.26l-.39.11-.39.13-.38.15a9.4,9.4,0,0,0-1.43.78l-.32.23a3.93,3.93,0,0,0-.32.25l-.32.27L12,21.7c-.08.08-.16.15-.23.23s-.38.44-.56.68l-.23.33a7.78,7.78,0,0,0-.61,1c-.06.12-.11.24-.17.37s-.1.25-.14.37a8,8,0,0,0-.42,1.61s0,0,0,.07H9.3a7.22,7.22,0,0,0,0,14.45H18a9.15,9.15,0,0,1,4-5.29,12.31,12.31,0,0,1-8.82-10.71c.2.24.42.49.65.72a9.55,9.55,0,0,0,10.43,2h0a9.42,9.42,0,0,0,3-2l.12-.13-.22,0Z"/><path class="cls-3" d="M22,35.56a9.18,9.18,0,0,1,4.76-1.33h.38c0-.21.07-.42.11-.62s.08-.36.13-.53.09-.33.14-.49l.12-.38c.07-.2.15-.39.23-.59s.14-.31.22-.47a9.09,9.09,0,0,1,.78-1.35c.08-.13.18-.27.27-.39s.21-.28.32-.4.22-.26.33-.38a4.11,4.11,0,0,1,.35-.37,2.62,2.62,0,0,1,.3-.28,2.4,2.4,0,0,1,.23-.22l.36-.29.32-.26L31.7,27l.43-.28a9.74,9.74,0,0,1,.9-.49l.48-.21a11.09,11.09,0,0,1,1.3-.46l.4-.09.35-.09.46-.07.27,0,.33,0c.34,0,.67,0,1,0h0a12.33,12.33,0,0,0-1.55-7.57l-2-2.57a12.21,12.21,0,0,0-7.6-3.56c.25.2.49.42.73.65a9.52,9.52,0,0,1,.12,13.33l-.12.13a9.42,9.42,0,0,1-3,2h0a9.55,9.55,0,0,1-10.43-2c-.23-.23-.45-.48-.65-.72A12.31,12.31,0,0,0,22,35.56Z"/><path class="cls-4" d="M62.92,45.47a8,8,0,0,0-6.38-7.89A6.26,6.26,0,0,0,50.32,32a5.58,5.58,0,0,0-.62,0,3.5,3.5,0,0,0-.49.07h-.07l-.12,0h0l-.12,0-.25.06a11.68,11.68,0,0,0-9.94-8,13.37,13.37,0,0,0-.87-5.33,1,1,0,1,0-1.86.73,11.39,11.39,0,0,1,.76,4.57l-.21,0-.35,0-.29,0-.29,0-.18,0-.11,0-.79.19a11.89,11.89,0,0,0-1.4.5l-.37.16-.17.08a10.69,10.69,0,0,0-1,.55l-.84.56a3.63,3.63,0,0,0-.33.27L30,27l-.24.23a3.65,3.65,0,0,0-.3.28A4.92,4.92,0,0,0,29,28c-.13.14-.26.29-.32.37s-.19.22-.28.34l-.1.13c-.11.14-.23.31-.29.42a10.06,10.06,0,0,0-.85,1.47c-.09.18-.16.34-.25.55l-.06.14c-.07.16-.13.32-.19.5l-.13.4c-.06.18-.11.37-.14.5s-.07.28-.11.43a10.16,10.16,0,0,0-1.21.13l-.39.09c-.27.06-.53.11-.8.19l-.45.15c-.23.08-.47.16-.7.26l-.46.22-.4.19-.56-.2-.53-.21c-.25-.11-.5-.25-.74-.38l-.47-.25c-.27-.16-.52-.34-.77-.52l-.36-.25a11.35,11.35,0,0,1-1-.91,11.28,11.28,0,0,1-2.61-4.07A10.52,10.52,0,0,0,28,26.27l.12-.13a10.59,10.59,0,0,0,1.23-13,11.15,11.15,0,0,1,4.09,2.63q.31.31.59.64a1,1,0,0,0,1.52-1.3q-.33-.39-.7-.75a13.29,13.29,0,0,0-8.22-3.85,1,1,0,0,0-.71,1.78c.23.18.45.38.65.58a8.57,8.57,0,0,1,.31,11.7h0l-.14,0a9.43,9.43,0,0,0-8.85-6.29,9,9,0,0,0-2.31.29l-.5.14-.13,0-.34.12-.37.15a10.34,10.34,0,0,0-1.56.85,4.35,4.35,0,0,0-.38.27c-.14.1-.27.2-.36.28l-.73.67-.2.2c-.22.24-.42.49-.63.77l-.24.35a8.63,8.63,0,0,0-.68,1.17l-.13.27L9.26,24c-.06.14-.12.3-.15.4a8.22,8.22,0,0,0-.32,1,8.25,8.25,0,0,0-6.62,4.14,1,1,0,0,0,1.74,1,6.25,6.25,0,0,1,4.64-3.09c0,.06,0,.11,0,.16,0,.23,0,.47,0,.7a1,1,0,0,0,1,.93h.07a1,1,0,0,0,.93-1.07c0-.18,0-.37,0-.56a7.14,7.14,0,0,1,.08-1.12h0A7.09,7.09,0,0,1,11,25.05c0-.1.07-.2.1-.27l.16-.35a7,7,0,0,1,.55-.95l.19-.27c.16-.21.32-.41.51-.62l.09-.09.65-.6.28-.21.25-.18A8.38,8.38,0,0,1,15,20.83l.38-.15.13,0,.2-.06.33-.09a7.07,7.07,0,0,1,1.83-.23,7.42,7.42,0,0,1,7,5.13,5.2,5.2,0,0,0-1.31,1.4,8.51,8.51,0,0,1-9.07-1.91c-.21-.21-.41-.44-.59-.65a1,1,0,0,0-1.76.73,13.08,13.08,0,0,0,5,9.2l.33.25q.48.36,1,.67l.29.18a13.34,13.34,0,0,0,1.18.62l-.06.06c-.25.23-.48.47-.7.71l-.22.27q-.25.3-.47.61l-.21.3c-.16.25-.31.5-.45.76l-.11.19a10.16,10.16,0,0,0-.44,1l0,.08H9.3a6.22,6.22,0,0,1-6.22-6.21q0-.24,0-.48a1,1,0,0,0-2-.15q0,.31,0,.63A8.22,8.22,0,0,0,9.3,41.85h7.42a10,10,0,0,0-.13,1.53A10.17,10.17,0,0,0,26.75,53.53H50.83a1,1,0,0,0,0-2H26.75a8.14,8.14,0,0,1-7.84-10.4q.11-.37.24-.72a8.07,8.07,0,0,1,6.9-5.12c0,.16,0,.32,0,.48s0,.59,0,.88a1,1,0,0,0,1,.92h.08a1,1,0,0,0,.91-1.08c0-.24,0-.48,0-.71a10.46,10.46,0,0,1,.09-1.39h0c0-.19.06-.37.1-.55s.07-.3.12-.49.08-.29.12-.42l.11-.36c0-.14.1-.27.15-.4l0-.12.21-.45a8.5,8.5,0,0,1,.73-1.25c.06-.11.15-.22.2-.29l.11-.14.22-.27c.08-.1.17-.2.3-.34A3,3,0,0,1,30.8,29l.1-.1A.92.92,0,0,1,31,28.8a1,1,0,0,0,.17-.15l.12-.11.39-.31.21-.17.76-.51a8.8,8.8,0,0,1,.78-.42l.15-.07.32-.14a10.24,10.24,0,0,1,1.12-.4l1.29-.26.15,0,.24,0c.31,0,.61,0,1,0A9.64,9.64,0,0,1,46.82,33a6.19,6.19,0,0,0-2.75,5.17,6.32,6.32,0,0,0,.88,3.2,1,1,0,1,0,1.72-1,4.26,4.26,0,0,1-.6-2.19,4.21,4.21,0,0,1,2.35-3.8h0l.19-.09h0l.13,0a3,3,0,0,1,.52-.17h.08l.1,0h0l.12,0,.25,0a4.27,4.27,0,0,1,4.68,4.24v.22a1,1,0,0,0,.9,1,6.06,6.06,0,0,1-.61,12.1h-.94a1,1,0,0,0,0,2h.94A8.07,8.07,0,0,0,62.92,45.47Z"/><path class="cls-4" d="M27.55,39.21a1,1,0,0,0-.5,1.32q.2.44.43.86a1,1,0,0,0,1.75-1q-.19-.35-.36-.71A1,1,0,0,0,27.55,39.21Z"/><path class="cls-4" d="M9.7,32.17a1,1,0,0,0,1.75-1c-.1-.18-.19-.36-.28-.55a1,1,0,1,0-1.82.82Q9.51,31.83,9.7,32.17Z"/></svg>