<?xml version="1.0" ?><svg data-name="Layer 1" id="Layer_1" viewBox="0 0 64 64" xmlns="http://www.w3.org/2000/svg"><defs><style>.cls-1{fill:#83d9f2;}.cls-2{fill:#002849;}</style></defs><title/><path class="cls-1" d="M11.77,42.37c-1.93,4-3.59,8-3.59,10.22a9.4,9.4,0,1,0,18.79,0c0-5.19-9.4-21-9.4-21S14.43,36.9,11.77,42.37Z"/><path class="cls-1" d="M37,52.58a9.4,9.4,0,1,0,18.79,0c0-5.19-9.4-21-9.4-21S37,47.39,37,52.58Z"/><path class="cls-1" d="M41.4,23C41.4,17.79,32,2,32,2s-9.4,15.8-9.4,21A9.4,9.4,0,0,0,41.4,23Z"/><path class="cls-2" d="M10.16,45.87a1,1,0,0,0-1.3.55,18.25,18.25,0,0,0-1.67,6.16A10.4,10.4,0,0,0,23.64,61a1,1,0,1,0-1.17-1.62A8.4,8.4,0,0,1,9.18,52.58c0-.76.26-2.31,1.52-5.41A1,1,0,0,0,10.16,45.87Z"/><path class="cls-2" d="M16.72,31.08s-3,5.08-5.61,10.35a1,1,0,0,0,1.79.88c1.71-3.49,3.6-6.87,4.67-8.74,3,5.14,8.39,15.36,8.39,19a8.38,8.38,0,0,1-.48,2.8,1,1,0,1,0,1.88.67A10.36,10.36,0,0,0,28,52.58c0-5.4-9.15-20.84-9.54-21.5A1,1,0,0,0,16.72,31.08Z"/><path class="cls-2" d="M45.56,31.08s-.89,1.5-2.13,3.74a1,1,0,1,0,1.75,1c.48-.86.9-1.61,1.24-2.21,3,5.14,8.39,15.36,8.39,19a8.4,8.4,0,1,1-16.79,0c0-2,1.73-6.44,4.86-12.51a1,1,0,1,0-1.78-.92C37.74,45.68,36,50.2,36,52.58a10.4,10.4,0,1,0,20.79,0c0-5.4-9.15-20.84-9.54-21.5A1,1,0,0,0,45.56,31.08Z"/><path class="cls-2" d="M22,20.48a9.9,9.9,0,0,0-.4,2.5A10.4,10.4,0,1,0,42.4,23a10.48,10.48,0,0,0-.47-2.77,1,1,0,0,0-1.92.54A8.75,8.75,0,0,1,40.4,23,8.4,8.4,0,1,1,23.6,23a8.14,8.14,0,0,1,.33-2A1,1,0,0,0,22,20.48Z"/><path class="cls-2" d="M24.1,17.42a1,1,0,0,0,1.31-.53A135.18,135.18,0,0,1,32,4a128.92,128.92,0,0,1,6.9,13.64,1,1,0,1,0,1.85-.75,139.25,139.25,0,0,0-7.89-15.4,1,1,0,0,0-1.72,0,147.85,147.85,0,0,0-7.57,14.63A1,1,0,0,0,24.1,17.42Z"/></svg>