<?xml version="1.0" ?><svg data-name="Layer 1" id="Layer_1" viewBox="0 0 64 64" xmlns="http://www.w3.org/2000/svg"><defs><style>.cls-1{fill:#ecf1f6;}.cls-2{fill:#677a91;}.cls-3{fill:#002849;}</style></defs><title/><path class="cls-1" d="M32,19.55A25,25,0,0,0,10.34,32a25.06,25.06,0,0,0,43.31,0A25,25,0,0,0,32,19.55Zm0,20.52A8.07,8.07,0,1,1,40.07,32,8.07,8.07,0,0,1,32,40.07Z"/><circle class="cls-2" cx="32" cy="32" r="8.07"/><path class="cls-3" d="M15,26.2a1,1,0,0,0-1.41,0A26.09,26.09,0,0,0,9.48,31.5a1,1,0,0,0,0,1A26.14,26.14,0,0,0,32,45.45a25.91,25.91,0,0,0,14.73-4.56,1,1,0,1,0-1.13-1.65A23.92,23.92,0,0,1,32,43.45,24.14,24.14,0,0,1,11.51,32,24.1,24.1,0,0,1,15,27.62,1,1,0,0,0,15,26.2Z"/><path class="cls-3" d="M17.63,24.05a1,1,0,0,0,1.38.3A24.06,24.06,0,0,1,52.49,32a24.09,24.09,0,0,1-2.73,3.62A1,1,0,0,0,51.24,37a26.13,26.13,0,0,0,3.29-4.47,1,1,0,0,0,0-1,26.06,26.06,0,0,0-36.59-8.83A1,1,0,0,0,17.63,24.05Z"/><path class="cls-3" d="M22.93,32A9.07,9.07,0,1,0,32,22.93,9.08,9.08,0,0,0,22.93,32Zm16.13,0A7.07,7.07,0,1,1,32,24.93,7.07,7.07,0,0,1,39.07,32Z"/><path class="cls-3" d="M5.81,11.83a1,1,0,1,0-1.47,1.36l2.38,2.58a1,1,0,0,0,1.47-1.36Z"/><path class="cls-3" d="M10,16.41a1,1,0,1,0-1.47,1.36l4.21,4.57A1,1,0,0,0,14.24,21Z"/><path class="cls-3" d="M18.69,4.27A1,1,0,1,0,16.83,5l4.46,11.62a1,1,0,0,0,1.87-.72Z"/><path class="cls-3" d="M33,14.44V2a1,1,0,1,0-2,0V14.44a1,1,0,1,0,2,0Z"/><path class="cls-3" d="M41.78,17.25a1,1,0,0,0,.93-.64L47.17,5a1,1,0,1,0-1.87-.72L40.85,15.89a1,1,0,0,0,.93,1.36Z"/><path class="cls-3" d="M59.6,11.77a1,1,0,0,0-1.41.06L49.76,21a1,1,0,0,0,1.47,1.36l8.43-9.15A1,1,0,0,0,59.6,11.77Z"/><path class="cls-3" d="M55.71,48a1,1,0,0,0-.06,1.41l2.54,2.75a1,1,0,0,0,1.47-1.36l-2.54-2.75A1,1,0,0,0,55.71,48Z"/><path class="cls-3" d="M54.18,44.86l-2.95-3.2A1,1,0,0,0,49.76,43l2.95,3.2a1,1,0,1,0,1.47-1.36Z"/><path class="cls-3" d="M46.24,60.37A1,1,0,0,0,47.17,59L42.72,47.39a1,1,0,1,0-1.87.72l4.46,11.62A1,1,0,0,0,46.24,60.37Z"/><path class="cls-3" d="M33,62V49.56a1,1,0,1,0-2,0V62a1,1,0,1,0,2,0Z"/><path class="cls-3" d="M22.58,46.82a1,1,0,0,0-1.29.58L16.83,59a1,1,0,0,0,1.87.72l4.46-11.62A1,1,0,0,0,22.58,46.82Z"/><path class="cls-3" d="M4.4,52.23a1,1,0,0,0,1.41-.06L14.24,43a1,1,0,0,0-1.47-1.36L4.34,50.81A1,1,0,0,0,4.4,52.23Z"/></svg>