<?xml version="1.0" ?><svg data-name="Layer 1" id="Layer_1" viewBox="0 0 64 64" xmlns="http://www.w3.org/2000/svg"><defs><style>.cls-1{fill:#72d849;}</style></defs><title/><path class="cls-1" d="M22.6,27.51H42.23a5.06,5.06,0,1,0-5.06-5.06,1,1,0,0,0,2,0,3.06,3.06,0,1,1,3.06,3.06H22.6a1,1,0,0,0,0,2Z"/><path class="cls-1" d="M56,17.31a7,7,0,0,0-7,7h2a5,5,0,1,1,5,5H10.61a1,1,0,1,0,0,2H56a7,7,0,1,0,0-14Z"/><path class="cls-1" d="M33.67,36.13H14a1,1,0,0,0,0,2H33.67a3.06,3.06,0,1,1-3.06,3.06,1,1,0,0,0-2,0,5.06,5.06,0,1,0,5.06-5.06Z"/><path class="cls-1" d="M47.4,32.71H2.06a1,1,0,1,0,0,2H47.4a5,5,0,1,1-5,5,1,1,0,0,0-2,0,7,7,0,1,0,7-7Z"/></svg>