<?xml version="1.0" ?><svg data-name="Layer 1" id="Layer_1" viewBox="0 0 64 64" xmlns="http://www.w3.org/2000/svg"><defs><style>.cls-1{fill:#6e9eff;}.cls-2{fill:#ff5939;}.cls-3{fill:#fedb41;}.cls-4{fill:#b13fff;}.cls-5{fill:#002849;}</style></defs><title/><polygon class="cls-1" points="50.65 44.22 14.06 44.22 9.47 44.22 9.47 44.22 9.47 44.23 54.42 44.23 54.42 44.22 54.42 44.22 50.65 44.22"/><path class="cls-2" d="M57.09,24.61l-.47-.07v-.19A4.42,4.42,0,0,0,53,20a4.58,4.58,0,0,0-.83-.08,4.49,4.49,0,0,0-1,.12,2.23,2.23,0,0,0-.44.13.32.32,0,0,0-.09,0,2.59,2.59,0,0,0-.38.17h0a9,9,0,0,0-8.76-7.07,6.35,6.35,0,0,0-.76,0h-.16l-.26,0a3.5,3.5,0,0,0-.45.07h0l-.77.19c-.13,0-.26.07-.39.12l-.37.13a9,9,0,0,0-2.5,1.46l-.3.25-.34.33-.27.28c-.11.12-.21.23-.31.36l-.18.22c-.09.11-.17.22-.25.34a4.63,4.63,0,0,0-.35.55,3.37,3.37,0,0,0-.19.32s0,.09-.07.14a1,1,0,0,0-.07.15h0a1.46,1.46,0,0,0-.14.28,6.5,6.5,0,0,0-.27.66c0,.12-.09.24-.12.37a1.42,1.42,0,0,0-.07.22A8.51,8.51,0,0,0,32.56,21h-.33a7.5,7.5,0,0,0-1,.06h0a7.75,7.75,0,0,0,1,15.44H56a5.92,5.92,0,0,0,1.41-.17,6,6,0,0,0-.34-11.69Z"/><path class="cls-3" d="M33.41,18.29a3.73,3.73,0,0,1-1.27-2.23L32,15.23l-.14.83a3.76,3.76,0,0,1-3.07,3.08l-.84.14.84.14A3.67,3.67,0,0,1,31.27,21h0a7.5,7.5,0,0,1,1-.06h.33a8.51,8.51,0,0,1,.25-1.16,1.42,1.42,0,0,1,.07-.22c0-.13.08-.25.12-.37a6.5,6.5,0,0,1,.27-.66A1.46,1.46,0,0,1,33.41,18.29Z"/><path class="cls-3" d="M20.65,34.42l.14.84.14-.84A3.75,3.75,0,0,1,24,31.35l.84-.14L24,31.07A3.75,3.75,0,0,1,20.93,28l-.14-.84-.14.84a3.75,3.75,0,0,1-3.07,3.07l-.84.14.84.14A3.75,3.75,0,0,1,20.65,34.42Z"/><path class="cls-3" d="M17.63,20.89l.14-.84A3.75,3.75,0,0,1,20.84,17l.84-.14-.84-.14a3.75,3.75,0,0,1-3.07-3.07l-.14-.84-.14.84a3.75,3.75,0,0,1-3.07,3.07l-.84.14.84.14a3.75,3.75,0,0,1,3.07,3.07Z"/><path class="cls-4" d="M9.47,44.22h45a26,26,0,0,0,3-7.93,5.92,5.92,0,0,1-1.41.17H34.24A20.07,20.07,0,0,1,7.44,35a19.71,19.71,0,0,1-1.38-1.52A25.89,25.89,0,0,0,9.47,44.22Z"/><path class="cls-4" d="M40.26,13.38l.26,0h.16a6.35,6.35,0,0,1,.76,0,9,9,0,0,1,8.76,7.07h0a2.59,2.59,0,0,1,.38-.17.32.32,0,0,1,.09,0,2.23,2.23,0,0,1,.44-.13,4.49,4.49,0,0,1,1-.12A4.58,4.58,0,0,1,53,20a4.42,4.42,0,0,1,3.61,4.36v.19l.47.07A26,26,0,0,0,34.3,5.28a20,20,0,0,1,6,8.1Z"/><path class="cls-5" d="M16.4,15.88a1,1,0,0,0-1.35-.43,2.77,2.77,0,0,1-.8.27l-.84.14a1,1,0,0,0,0,2l.84.14a2.75,2.75,0,0,1,2.25,2.25l.14.84a1,1,0,0,0,1,.83h0a1,1,0,0,0,1-.83l.14-.84A2.75,2.75,0,0,1,21,18l.84-.14a1,1,0,0,0,0-2L21,15.71a2.75,2.75,0,0,1-2.25-2.25l-.14-.84a1,1,0,0,0-2,.33l.14.84a4.75,4.75,0,0,0,1.89,3,4.77,4.77,0,0,0-1,1,4.74,4.74,0,0,0-1.2-1.15A1,1,0,0,0,16.4,15.88Z"/><path class="cls-5" d="M62.31,43.22h-1a1,1,0,0,0,0,2h1a1,1,0,0,0,0-2Z"/><path class="cls-5" d="M9.44,45.22H57.09a1,1,0,0,0,0-2h-1a27,27,0,0,0,2.19-6.15,7,7,0,0,0,4.59-8,1,1,0,1,0-2,.4,5,5,0,0,1-4.88,6H32.23A6.75,6.75,0,0,1,31.4,22h.09c0,.09,0,.17,0,.25,0,.26,0,.51,0,.76a1,1,0,0,0,1,.91h.09a1,1,0,0,0,.9-1.09c0-.19,0-.38,0-.58a8.25,8.25,0,0,1,.08-1.15h0a7.68,7.68,0,0,1,.22-1l0-.11a1,1,0,0,0,.06-.17,1.51,1.51,0,0,1,.05-.15l0-.12a5.56,5.56,0,0,1,.23-.56l.07-.16a.94.94,0,0,0,.09-.19,1.66,1.66,0,0,0,.1-.2,2.14,2.14,0,0,1,.12-.21l.07-.11a3.92,3.92,0,0,1,.3-.46c.06-.09.12-.18.22-.29l.18-.22c.08-.11.16-.19.26-.3l.25-.26.25-.24.32-.27a7.28,7.28,0,0,1,1-.67,7.39,7.39,0,0,1,1.29-.63l.35-.12.17-.05.13,0,.63-.16.1,0a2.63,2.63,0,0,1,.37-.06l.31,0h.12a5.32,5.32,0,0,1,.64,0A8,8,0,0,1,49,19.9a5.46,5.46,0,0,0-1.54,7.24,1,1,0,0,0,1.71-1,3.37,3.37,0,0,1-.48-1.75,3.41,3.41,0,0,1,1.9-3.08h0l.09,0a1.3,1.3,0,0,1,.19-.08h0l.07,0a2.26,2.26,0,0,1,.33-.1,3.6,3.6,0,0,1,.46-.06l.26,0a3.55,3.55,0,0,1,.74.06,3.42,3.42,0,0,1,2.79,3.38v.19a1,1,0,0,0,.88,1l.42.06A4.93,4.93,0,0,1,59.56,27,1,1,0,0,0,61,25.58a6.92,6.92,0,0,0-3.09-1.8,26.92,26.92,0,0,0-23.5-19.5,1,1,0,0,0-.72,1.77,18.69,18.69,0,0,1,5.16,6.6l-.12,0-.11,0-.28.09-.43.15a9.26,9.26,0,0,0-1.59.78,9.07,9.07,0,0,0-1.17.83l-.35.29-.37.36-.3.31c-.13.14-.25.27-.33.38l-.2.24c-.1.12-.18.24-.25.34a2.72,2.72,0,0,1-.19-.61L33,15.06a1,1,0,0,0-2,.33l.14.83a4.75,4.75,0,0,0,1.07,2.28c-.05.13-.12.26-.16.4l0,.1c0,.09-.07.19-.09.29a2.22,2.22,0,0,0-.08.25c0,.14-.08.29-.12.45h0a4.67,4.67,0,0,0-.75-.71l.29-.23a1,1,0,0,0-1.3-1.52,2.76,2.76,0,0,1-1.32.62l-.84.14a1,1,0,0,0,0,2l.84.14a2.68,2.68,0,0,1,.5.14,8.65,8.65,0,0,0-5.56,9.36,2.74,2.74,0,0,1-1.65-2.07L21.77,27a1,1,0,0,0-1-.83h0a1,1,0,0,0-1,.83l-.14.84a2.75,2.75,0,0,1-2.25,2.25l-.84.14a1,1,0,1,0,.33,2l.84-.14a4.75,4.75,0,0,0,3-1.89,4.78,4.78,0,0,0,1,1,4.75,4.75,0,0,0-1.23,1.33,1,1,0,0,0-1.14,1.39,2.71,2.71,0,0,1,.2.67l.14.84a1,1,0,0,0,1,.83h0a1,1,0,0,0,1-.83l.14-.84a2.75,2.75,0,0,1,2.25-2.25l.1,0a8.76,8.76,0,0,0,6.86,5.07,19.09,19.09,0,0,1-19.45-.27,1,1,0,0,0-1,1.71,21.08,21.08,0,0,0,24-1.36H56.13a24.92,24.92,0,0,1-2.29,5.76H10A25,25,0,0,1,7.53,36.5l.06.05a1,1,0,0,0,1.33-1.49q-.4-.35-.78-.73a18.43,18.43,0,0,1-1.31-1.44,1,1,0,0,0-1.77.72A27.21,27.21,0,0,0,7.8,43.22H1.69a1,1,0,1,0,0,2ZM37.3,6.75A25,25,0,0,1,53.87,19.18a5.43,5.43,0,0,0-.68-.17,5.66,5.66,0,0,0-.92-.09l-.1,0a4.78,4.78,0,0,0-1.24.15h-.07a10,10,0,0,0-4.93-5.67,9.88,9.88,0,0,0-4.51-1.09l-.54,0A20.86,20.86,0,0,0,37.3,6.75Z"/><path class="cls-5" d="M41.69,48.89a1,1,0,0,0-1-1H22a1,1,0,0,0,0,2H40.69A1,1,0,0,0,41.69,48.89Z"/><path class="cls-5" d="M19.92,48.89a1,1,0,0,0-1-1h-11a1,1,0,0,0,0,2h11A1,1,0,0,0,19.92,48.89Z"/><path class="cls-5" d="M58.35,53.15a1,1,0,0,0-1-1h-29a1,1,0,0,0,0,2h29A1,1,0,0,0,58.35,53.15Z"/><path class="cls-5" d="M42.23,58.72a1,1,0,0,0-1-1H27.33a1,1,0,1,0,0,2H41.23A1,1,0,0,0,42.23,58.72Z"/><path class="cls-5" d="M22.81,57.72a1,1,0,0,0,0,2h1.35a1,1,0,0,0,0-2Z"/><path class="cls-5" d="M34.17,25.55a1,1,0,0,0-1.82.82c.11.25.24.5.37.74a1,1,0,0,0,.88.52,1,1,0,0,0,.48-.13,1,1,0,0,0,.39-1.36Q34.31,25.85,34.17,25.55Z"/></svg>