<?xml version="1.0" ?><svg data-name="Layer 1" id="Layer_1" viewBox="0 0 64 64" xmlns="http://www.w3.org/2000/svg"><defs><style>.cls-1{fill:#ecf1f6;}.cls-2{fill:#fedb41;}.cls-3{fill:#002849;}</style></defs><title/><path class="cls-1" d="M43.25,43c-.2.23-.42.45-.63.67A11.54,11.54,0,0,0,39,24.9l.05,0A7,7,0,0,0,40,15.23h-11a7,7,0,0,0-1.5,4.34A7.68,7.68,0,0,0,27.57,21h0a7,7,0,0,0,2.27,3.86l.05,0a11.53,11.53,0,0,0-3.66,18.69c-.2-.2-.4-.4-.58-.61a14.84,14.84,0,0,0-4.27,19H47.53a14.86,14.86,0,0,0-4.28-19Zm-16.94.7c.22.21.44.42.67.61C26.75,44.08,26.53,43.88,26.31,43.67Zm.87.78c.22.18.44.34.67.5C27.62,44.79,27.39,44.62,27.18,44.44Zm.95.69c.22.14.44.28.67.41C28.56,45.41,28.34,45.28,28.12,45.13Zm1,.6.66.32Zm1.1.5.64.23Zm1.19.39.59.15Zm1.3.27.48.07Zm9.12-2.56c.26-.22.51-.44.75-.68C42.37,43.89,42.12,44.12,41.86,44.33ZM35.69,47l.48-.07Zm1.19-.19.61-.16Zm1.13-.3.68-.25C38.46,46.3,38.24,46.39,38,46.46Zm1.07-.41q.37-.16.72-.35C39.56,45.84,39.32,46,39.08,46.06Zm1-.5c.25-.14.5-.29.74-.45Q40.46,45.35,40.08,45.56ZM41,45c.26-.18.51-.36.75-.56C41.51,44.62,41.26,44.8,41,45Z"/><circle class="cls-2" cx="34.63" cy="32.32" r="1.8"/><circle class="cls-2" cx="34.63" cy="40.57" r="1.8"/><path class="cls-2" d="M41.39,12.54H38.86L34.45,2,30,12.54H27.51a1.34,1.34,0,1,0,0,2.69H41.39a1.34,1.34,0,0,0,0-2.69Z"/><path class="cls-3" d="M48.41,62.47a16,16,0,0,0,1.9-7.53A15.78,15.78,0,0,0,49.16,49a1,1,0,1,0-1.86.75,13.78,13.78,0,0,1,1,5.18A13.94,13.94,0,0,1,46.92,61H22a13.65,13.65,0,0,1-1.4-6.06,13.92,13.92,0,0,1,5-10.61,12.51,12.51,0,0,0,6.13,3.38l.27.07c.27.06.55.09.83.13l.41.06a12.56,12.56,0,0,0,2.54,0l.25,0a12.48,12.48,0,0,0,7.39-3.6,14,14,0,0,1,1.86,1.89A1,1,0,1,0,46.77,45a16,16,0,0,0-2.16-2.15,12.46,12.46,0,0,0,.14-14.45l6-6,4.69.08h0a1,1,0,0,0,0-2l-2.75,0,2.49-2.49a1,1,0,0,0-1.41-1.41L51.26,19l0-2.76a1,1,0,0,0-1-1h0a1,1,0,0,0-1,1L49.29,21l-5.82,5.82a12.61,12.61,0,0,0-2.81-2.19,7.9,7.9,0,0,0,1-8.42,2.34,2.34,0,0,0-.31-4.66H39.53l-.81-1.94a1,1,0,0,0-1.85.77l.49,1.17H31.55l2.91-6.95,1.06,2.52a1,1,0,1,0,1.85-.77l-2-4.73a1,1,0,0,0-1.85,0l-4.15,9.92H27.51a2.34,2.34,0,0,0-.32,4.66,7.94,7.94,0,0,0-.77,3.37c0,.14,0,.28,0,.42h-.62a1,1,0,0,0,0,2h1a8.05,8.05,0,0,0,1.41,2.63,12.51,12.51,0,0,0-2.08,1.48,1,1,0,0,0,1.32,1.5,10.52,10.52,0,0,1,2.28-1.53,8,8,0,0,0,9.38,0,10.58,10.58,0,0,1,2.92,2.15L40.31,30a1,1,0,1,0,1.41,1.41L43.3,29.8a10.51,10.51,0,0,1-2.94,14.41l0,0c-.26.17-.52.33-.79.48l-.15.08c-.25.13-.5.25-.75.36l-.28.11c-.22.09-.45.18-.68.25l-.44.12-.58.15L36,45.9l-.43.07a10.31,10.31,0,0,1-2.23,0L33,45.91c-.24,0-.47-.07-.71-.12l-.49-.13-.54-.15-.58-.21-.39-.16c-.22-.1-.43-.2-.65-.31l-.27-.14q-.35-.2-.69-.42l-.16-.11c-.24-.17-.48-.34-.71-.53l-.06-.05a10.54,10.54,0,0,1-3-12.07h2.92a1,1,0,0,0,0-2H25.78l.12-.18a1,1,0,1,0-1.62-1.17,12.59,12.59,0,0,0-.84,1.35H14.9l-3.26-3.37a1,1,0,1,0-1.44,1.39l1.92,2H8.59a1,1,0,0,0,0,2h3.53l-1.92,2a1,1,0,0,0,1.44,1.39l3.26-3.37h7.66a12.48,12.48,0,0,0,1.73,11.29A15.79,15.79,0,0,0,20.5,62.48a1,1,0,0,0,.88.52H47.53A1,1,0,0,0,48.41,62.47ZM27.51,14.23a.34.34,0,1,1,0-.69H41.39a.35.35,0,0,1,.34.35.34.34,0,0,1-.34.34H27.51Zm6.94,11.36a6,6,0,0,1-2.14-.4,10.35,10.35,0,0,1,4.3,0A6,6,0,0,1,34.45,25.58Zm4.32-1.84a12.39,12.39,0,0,0-8.64,0A6.08,6.08,0,0,1,29,22h5.68a1,1,0,0,0,0-2H28.45c0-.14,0-.29,0-.42a6,6,0,0,1,1-3.34h2.07a1,1,0,0,0-.92,1v1.37a1,1,0,0,0,2,0V17.21a1,1,0,0,0-.92-1h5.58a1,1,0,0,0-.92,1v1.37a1,1,0,1,0,2,0V17.21a1,1,0,0,0-.92-1h2.07a6,6,0,0,1,1,3.34A6,6,0,0,1,38.78,23.74Z"/><path class="cls-3" d="M34.63,35.13a2.8,2.8,0,1,0-2.8-2.8A2.81,2.81,0,0,0,34.63,35.13Zm0-3.61a.8.8,0,1,1-.8.8A.8.8,0,0,1,34.63,31.52Z"/><path class="cls-3" d="M34.63,43.37a2.8,2.8,0,1,0-2.8-2.8A2.81,2.81,0,0,0,34.63,43.37Zm0-3.61a.8.8,0,1,1-.8.8A.8.8,0,0,1,34.63,39.76Z"/></svg>