<?xml version="1.0" ?><svg data-name="Layer 1" id="Layer_1" viewBox="0 0 64 64" xmlns="http://www.w3.org/2000/svg"><defs><style>.cls-1{fill:#6e9eff;}.cls-2{fill:#fedb41;}.cls-3{fill:#002849;}</style></defs><title/><path d="M29.62,61.9l-.25,0Z"/><path class="cls-1" d="M32,62c-.8,0-1.59,0-2.38-.1C30.41,62,31.2,62,32,62Z"/><path d="M29.37,2.12l.25,0Z"/><path d="M32,2c-.8,0-1.59,0-2.38.1l-.25,0c-.8.07-1.59.17-2.37.3h0a30,30,0,0,1,0,59.15h0c.78.13,1.57.23,2.37.3l.25,0c.78.06,1.58.1,2.38.1A30,30,0,0,0,32,2Z"/><path class="cls-1" d="M32,2c-.8,0-1.59,0-2.38.1C30.41,2,31.2,2,32,2Z"/><path class="cls-2" d="M27,61.58A30,30,0,0,0,27,2.42a30,30,0,0,0,0,59.15Z"/><path class="cls-3" d="M16.7,59a1,1,0,1,0,1-1.74A29,29,0,0,1,20.34,5.44a1,1,0,0,0-.8-1.83A31,31,0,0,0,16.7,59Z"/><path class="cls-3" d="M32,1a31.12,31.12,0,0,0-7.68,1,1,1,0,1,0,.49,1.94,29,29,0,0,1,5.14-.82,30,30,0,0,1,0,57.84,28.86,28.86,0,0,1-7.42-1.49,1,1,0,0,0-.65,1.89A31,31,0,1,0,32,1Z"/></svg>