<?xml version="1.0" ?><svg data-name="Layer 1" id="Layer_1" viewBox="0 0 64 64" xmlns="http://www.w3.org/2000/svg"><defs><style>.cls-1{fill:#6e9eff;}.cls-2{fill:#72d849;}.cls-3{fill:#b13fff;}.cls-4{fill:#002849;}</style></defs><title/><polygon class="cls-1" points="25.57 10.15 25.57 10.15 25.57 10.15 25.57 10.15"/><rect class="cls-1" x="31.9" y="4.22"/><polygon class="cls-1" points="38.24 10.15 38.24 10.15 38.24 10.15 38.24 10.15"/><polygon class="cls-1" points="19.23 4.22 19.23 4.22 19.23 4.22 19.23 4.22"/><polygon class="cls-1" points="44.57 4.22 44.57 4.22 44.57 4.22 44.57 4.22"/><path class="cls-2" d="M44.47,31.54a19,19,0,0,1-.54,4.52h8A20,20,0,0,0,32,16.12C38.89,16.12,44.47,23,44.47,31.54Z"/><path class="cls-2" d="M20.07,36.07a19,19,0,0,1-.54-4.52C19.53,23,25.11,16.12,32,16.12A20,20,0,0,0,12.05,36.07Z"/><path class="cls-3" d="M43.93,36.07a19,19,0,0,0,.54-4.52C44.47,23,38.89,16.12,32,16.12S19.53,23,19.53,31.54a19,19,0,0,0,.54,4.52H43.93Z"/><path class="cls-4" d="M33,15.17v-1a1,1,0,0,0-2,0v1a20.94,20.94,0,0,0-16.35,9.17,1,1,0,0,0,1.65,1.12,19,19,0,0,1,6.62-6,18.14,18.14,0,0,0-4.4,12.11,20.08,20.08,0,0,0,.31,3.52H13.08a18.86,18.86,0,0,1,1.27-5.91,1,1,0,1,0-1.86-.73,20.84,20.84,0,0,0-1.44,7.64,1,1,0,0,0,1,1H31V57.24a5.76,5.76,0,0,0,11.52,0,1,1,0,0,0-2,0,3.76,3.76,0,0,1-7.52,0V37.07h5.24a1,1,0,0,0,0-2H20.88a18,18,0,0,1-.35-3.52c0-8,5.15-14.42,11.47-14.42s11.47,6.47,11.47,14.42a18,18,0,0,1-.35,3.52H42a1,1,0,0,0,0,2h10a1,1,0,0,0,1-1A21,21,0,0,0,33,15.17Zm12.16,19.9a20.08,20.08,0,0,0,.31-3.52A18.15,18.15,0,0,0,41.1,19.47a19,19,0,0,1,9.82,15.6Z"/><path class="cls-4" d="M21.51,1.94a1,1,0,0,0-1.31-.07,1,1,0,0,0-1.95,0,1,1,0,0,0-1.38,1.38,1,1,0,0,0,0,1.95,1,1,0,0,0,1.38,1.38,1,1,0,0,0,1.95,0A1,1,0,0,0,21.58,5.2a1,1,0,0,0,0-1.95A1,1,0,0,0,21.51,1.94Z"/><path class="cls-4" d="M28.68,4.22a1,1,0,0,0,.87,1,1,1,0,0,0,1.38,1.38,1,1,0,0,0,1.95,0A1,1,0,0,0,34.25,5.2a1,1,0,0,0,0-1.95,1,1,0,0,0-1.38-1.38,1,1,0,0,0-1.95,0,1,1,0,0,0-1.38,1.38A1,1,0,0,0,28.68,4.22Z"/><path class="cls-4" d="M41.35,4.22a1,1,0,0,0,.87,1A1,1,0,0,0,43.6,6.57a1,1,0,0,0,1.95,0A1,1,0,0,0,46.93,5.2a1,1,0,0,0,0-1.95,1,1,0,0,0-1.38-1.38,1,1,0,0,0-1.95,0,1,1,0,0,0-1.38,1.38A1,1,0,0,0,41.35,4.22Z"/><path class="cls-4" d="M22.34,10.15a1,1,0,0,0,.87,1,1,1,0,0,0,1.38,1.38,1,1,0,0,0,1.95,0,1,1,0,0,0,1.38-1.38,1,1,0,0,0,0-1.95A1,1,0,0,0,26.54,7.8a1,1,0,0,0-1.95,0,1,1,0,0,0-1.38,1.38A1,1,0,0,0,22.34,10.15Z"/><path class="cls-4" d="M35,10.15a1,1,0,0,0,.87,1,1,1,0,0,0,1.38,1.38,1,1,0,0,0,1.95,0,1,1,0,0,0,1.38-1.38,1,1,0,0,0,0-1.95A1,1,0,0,0,39.21,7.8a1,1,0,0,0-1.95,0,1,1,0,0,0-1.38,1.38A1,1,0,0,0,35,10.15Z"/></svg>