<?xml version="1.0" ?><svg data-name="Layer 1" id="Layer_1" viewBox="0 0 64 64" xmlns="http://www.w3.org/2000/svg"><defs><style>.cls-1{fill:#677a91;}.cls-2{fill:#6e9eff;}.cls-3{fill:#fedb41;}.cls-4{fill:#002849;}</style></defs><title/><path class="cls-1" d="M54.53,26.44a2.53,2.53,0,0,0,0-.26A6.16,6.16,0,0,0,48.37,20a5.18,5.18,0,0,0-.63,0l-.34,0-.17,0-.27.07a5.7,5.7,0,0,0-.64.18l-.09,0a5.13,5.13,0,0,0-.6.26h0a12.44,12.44,0,0,0-12.15-9.82c-.4,0-.79,0-1.18.05l-.39.05-.32,0-.54.09-.42.1-.46.11a12.83,12.83,0,0,0-1.54.54l-.56.25a11.25,11.25,0,0,0-1.06.57l-.5.33c-.17.1-.33.23-.49.35l-.31.24c-.14.11-.29.23-.42.35l-.13.11a1.11,1.11,0,0,0-.15.14c-.12.1-.23.22-.35.33l-.41.43c-.14.15-.27.29-.39.45s-.25.3-.37.47a5.49,5.49,0,0,0-.32.46,11.12,11.12,0,0,0-.92,1.59c-.09.18-.17.36-.25.56s-.19.45-.27.69-.1.3-.15.45-.11.38-.16.57-.1.42-.15.62-.1.48-.13.72h-.45a10.75,10.75,0,0,0,0,21.5h33a8.3,8.3,0,0,0,.83-16.55Z"/><polygon class="cls-2" points="53.94 49.99 53.94 49.99 53.94 49.99 53.94 49.99"/><path class="cls-2" d="M45.62,20.66a5.13,5.13,0,0,1,.6-.26,6.13,6.13,0,0,0-.6.26Z"/><path class="cls-2" d="M46.31,20.37a6.11,6.11,0,0,1,.91-.25l-.27.07A5.7,5.7,0,0,0,46.31,20.37Z"/><path class="cls-2" d="M30.16,11.28l.46-.11.42-.1-.42.1Z"/><path class="cls-2" d="M47.24,20.11h0l.17,0h-.16Z"/><path class="cls-2" d="M25.71,13.56l-.42.35c.13-.12.28-.23.42-.35l.31-.24c.16-.12.32-.24.49-.35-.17.1-.33.23-.49.35Z"/><path class="cls-2" d="M32.29,10.89c.39,0,.78-.05,1.18-.05h0C33.07,10.84,32.68,10.86,32.29,10.89Z"/><path class="cls-3" d="M12.74,25a10.72,10.72,0,0,1,7.95-3.51h.45c0-.24.08-.49.13-.72s.1-.43.15-.62.1-.38.16-.57.1-.3.15-.45.17-.46.27-.69.16-.37.25-.56a11.12,11.12,0,0,1,.92-1.59,5.49,5.49,0,0,1,.32-.46c.12-.16.24-.32.37-.47s.25-.3.39-.45l.41-.43c.11-.11.23-.23.35-.33a1.11,1.11,0,0,1,.15-.14A8.69,8.69,0,1,0,12.74,25Z"/><path class="cls-4" d="M61.84,36.59a1,1,0,0,0,1.1-.89,9.31,9.31,0,0,0-7.42-10.13A7.18,7.18,0,0,0,48.4,19h-.17l-.4,0-.57.07-.14,0H47a7.1,7.1,0,0,0-.73.18A13.5,13.5,0,0,0,33.47,9.84c-.43,0-.85,0-1.31.06H32l-.28,0-.33,0-.64.11-.39.09-.51.13a13.85,13.85,0,0,0-1.65.58l-.61.27a12.25,12.25,0,0,0-1.15.62c-.19.11-.37.24-.5.33s-.28.19-.46.31l0,0,0,0A9.68,9.68,0,0,0,9,12.44a1,1,0,1,0,1.7,1.06,7.69,7.69,0,0,1,13.25.31l-.41.43c-.16.17-.31.34-.41.48l0,0v0h0c-.13.15-.26.31-.38.47h0a5.88,5.88,0,0,0-.34.49l0,0h0a11.91,11.91,0,0,0-1,1.64v0h0c-.08.17-.16.34-.23.51l0,.08h0c-.1.24-.21.49-.28.73s-.12.34-.16.48v.05l0,.07-.14.5c-.05.19-.1.4-.14.6-.38,0-.75,0-1.13.09l-.36.06c-.25,0-.5.08-.75.14l-.42.11L17,21.1l-.43.16L16,21.5l-.42.2L15,22l-.41.24-.55.36-.38.28-.52.42-.35.3-.13.11a7.64,7.64,0,0,1-3.08-6.16,1,1,0,0,0-2,0,9.62,9.62,0,0,0,3.76,7.65A11.74,11.74,0,0,0,20.69,44h33a9.21,9.21,0,0,0,5.63-1.9,1,1,0,1,0-1.21-1.59A7.22,7.22,0,0,1,53.7,42h-33a9.74,9.74,0,0,1-.63-19.46c0,.25,0,.51,0,.76s0,.68,0,1a1,1,0,0,0,1,.92h.08a1,1,0,0,0,.91-1.08c0-.29,0-.57,0-.85a11.53,11.53,0,0,1,.23-2.3h0c0-.19.09-.39.14-.59s.09-.34.15-.53.08-.27.14-.41.16-.41.25-.63.1-.22.15-.34l.07-.16h0A10.55,10.55,0,0,1,24,16.83a4.46,4.46,0,0,1,.27-.39c.1-.14.21-.28.36-.45s.21-.26.35-.4l.36-.39.29-.28.14-.13h0l.14-.12.4-.33.27-.21.06,0,0,0c.11-.08.21-.16.37-.26l.46-.3a10.26,10.26,0,0,1,1-.52l.51-.23a11.86,11.86,0,0,1,1.41-.5l.43-.11.37-.09.5-.08.23,0,.12,0,.17,0h.11c.36,0,.72,0,1.09,0a11.48,11.48,0,0,1,11,8.33,7.16,7.16,0,0,0-2.25,9.67,1,1,0,1,0,1.72-1,5.16,5.16,0,0,1,2.31-7.34l.23-.1a5.12,5.12,0,0,1,.75-.23l.15,0a5.17,5.17,0,0,1,.91-.09h.08a5.17,5.17,0,0,1,5.17,5.17s0,.1,0,.15a1,1,0,0,0,.89,1.11A7.31,7.31,0,0,1,61,35.49,1,1,0,0,0,61.84,36.59Z"/><path class="cls-4" d="M16.22,2.32V4.77a1,1,0,1,0,2,0V2.32a1,1,0,0,0-2,0Z"/><path class="cls-4" d="M2,16.53a1,1,0,0,0,0,2H4.46a1,1,0,1,0,0-2Z"/><path class="cls-4" d="M5.76,6.07a1,1,0,0,0,0,1.41L7.49,9.22A1,1,0,0,0,8.91,7.8L7.17,6.07A1,1,0,0,0,5.76,6.07Z"/><path class="cls-4" d="M5.76,29a1,1,0,0,0,1.41,0l1.74-1.74a1,1,0,0,0-1.41-1.41L5.76,27.59A1,1,0,0,0,5.76,29Z"/><path class="cls-4" d="M27.28,6.07,25.54,7.8A1,1,0,1,0,27,9.22l1.74-1.74a1,1,0,0,0-1.41-1.41Z"/><path class="cls-4" d="M22.64,27a1,1,0,1,0-1.82.82q.26.58.57,1.14a1,1,0,0,0,1.75-1Q22.87,27.54,22.64,27Z"/><path class="cls-4" d="M21.76,50a1,1,0,0,0-1-1H20l.55-.55A1,1,0,0,0,19.11,47l-.55.55V46.8a1,1,0,0,0-2,0v.78L16,47a1,1,0,0,0-1.41,1.41l.55.55h-.78a1,1,0,0,0,0,2h.78l-.55.55A1,1,0,1,0,16,52.95l.55-.55v.78a1,1,0,0,0,2,0V52.4l.55.55a1,1,0,0,0,1.41-1.41L20,51h.78A1,1,0,0,0,21.76,50Z"/><path class="cls-4" d="M39.94,50a1,1,0,0,0-1-1h-.78l.55-.55A1,1,0,0,0,37.3,47l-.55.55V46.8a1,1,0,0,0-2,0v.78L34.2,47a1,1,0,0,0-1.41,1.41l.55.55h-.78a1,1,0,1,0,0,2h.78l-.55.55a1,1,0,1,0,1.41,1.41l.55-.55v.78a1,1,0,0,0,2,0V52.4l.55.55a1,1,0,0,0,1.41-1.41L38.16,51h.78A1,1,0,0,0,39.94,50Z"/><path class="cls-4" d="M58.13,50a1,1,0,0,0-1-1h-.78l.55-.55A1,1,0,0,0,55.48,47l-.55.55V46.8a1,1,0,0,0-2,0v.78L52.39,47A1,1,0,0,0,51,48.44l.55.55h-.78a1,1,0,0,0,0,2h.78l-.55.55a1,1,0,1,0,1.41,1.41l.55-.55v.78a1,1,0,0,0,2,0V52.4l.55.55a1,1,0,0,0,1.41-1.41L56.35,51h.78A1,1,0,0,0,58.13,50Z"/><path class="cls-4" d="M30.85,58.49a1,1,0,0,0-1-1h-.78l.55-.55a1,1,0,0,0-1.41-1.41l-.55.55V55.3a1,1,0,0,0-2,0v.78l-.55-.55a1,1,0,0,0-1.41,1.41l.55.55h-.78a1,1,0,1,0,0,2h.78l-.55.55a1,1,0,1,0,1.41,1.41l.55-.55v.78a1,1,0,0,0,2,0v-.78l.55.55A1,1,0,0,0,29.62,60l-.55-.55h.78A1,1,0,0,0,30.85,58.49Z"/><path class="cls-4" d="M49,58.49a1,1,0,0,0-1-1h-.78l.55-.55a1,1,0,0,0-1.41-1.41l-.55.55V55.3a1,1,0,0,0-2,0v.78l-.55-.55a1,1,0,0,0-1.41,1.41l.55.55h-.78a1,1,0,0,0,0,2h.78l-.55.55a1,1,0,1,0,1.41,1.41l.55-.55v.78a1,1,0,0,0,2,0v-.78l.55.55A1,1,0,0,0,47.81,60l-.55-.55H48A1,1,0,0,0,49,58.49Z"/></svg>