<?xml version="1.0" ?><svg data-name="Layer 1" id="Layer_1" viewBox="0 0 64 64" xmlns="http://www.w3.org/2000/svg"><defs><style>.cls-1{fill:#b13fff;}</style></defs><title/><path class="cls-1" d="M22.62,18.16A1,1,0,0,0,24,17.8L30.31,6.91l-3,21.29a1,1,0,0,0,1,1.14h7.33a1,1,0,0,0,0-2H29.48L33,2.14a1,1,0,0,0-1.85-.64L22.25,16.8A1,1,0,0,0,22.62,18.16Z"/><path class="cls-1" d="M50.28,31.5a1,1,0,0,0-.87-.5H16.32l5-8.62a1,1,0,1,0-1.73-1L13.72,31.5a1,1,0,0,0,.86,1.5h33.1l-14,24.09,3-21.29a1,1,0,0,0-2-.28L31,61.86a1,1,0,0,0,1.85.64l17.42-30A1,1,0,0,0,50.28,31.5Z"/><path class="cls-1" d="M33,35.67a1,1,0,0,0-1-1H28.33a1,1,0,0,0,0,2H32A1,1,0,0,0,33,35.67Z"/></svg>